{"title":"Fathers.of.Girls.2009.READNFO.DVDRiP.XviD-UNVEiL","uid":6248048,"size":371419062,"categoryP":"video","categoryS":"movies","magnet":"?xt=urn:btih:7f34ee96b04a32ee780f0d39cb88ff1508e28cb6&amp;dn=Fathers.of.Girls.2009.READNFO.DVDRiP.XviD-UNVEiL&amp;tr=udp%3A%2F%2Ftracker.openbittorrent.com%3A80&amp;tr=udp%3A%2F%2Fopen.demonii.com%3A1337&amp;tr=udp%3A%2F%2Ftracker.coppersurfer.tk%3A6969&amp;tr=udp%3A%2F%2Fexodus.desync.com%3A6969","seeders":0,"leechers":1,"uploader":"TvTeam","files":6,"time":1300301782,"description":". \n  &lt;a href=&quot;\nhttp://www.torrenting.com/&quot; rel=&quot;nofollow&quot; target=&quot;_NEW&quot;&gt;\nhttp://www.torrenting.com/&lt;/a&gt;        :     Greatest Movie Tracker on The Net!!!\n &lt;a href=&quot;\nhttp://www.Torrenting.com&quot; rel=&quot;nofollow&quot; target=&quot;_NEW&quot;&gt;\nhttp://www.Torrenting.com&lt;/a&gt;          :     Once &amp; For all ;)\n\n\n               www . Torrenting . Com \n\n(((((((((((((= Enjoy No RAR releases =))))))))))))))))))))\n\n\n...................................NFO:....................................\n\n.Fathers.of.Girls.2009..READNFO.DVDRiP.XviD-UNVEiL\n\nrls 16/03/2011\nrtl 14/03/2011 (uk)\n\nenglish &lt;a href=&quot;\nhttp://www.imdb.com/title/tt1300349/&quot; rel=&quot;nofollow&quot; target=&quot;_NEW&quot;&gt;\nhttp://www.imdb.com/title/tt1300349/&lt;/a&gt;\n\nnotes:\ncompressibility very good.\ncheck /Sample/fathers.of.girls.2009.readnfo.dvdrip.xvid-unveil-sample.jpg\n\nVideo\nID                               : 0\nFormat                           : MPEG-4 Visual\nFormat profile                   : Advanced Simple@L5\nFormat settings, BVOP            : 2\nFormat settings, QPel            : No\nFormat settings, GMC             : No warppoints\nFormat settings, Matrix          : Default (H.263)\nCodec ID                         : XVID\nCodec ID/Hint                    : XviD\nDuration                         : 1h 12mn\nBit rate                         : 536 Kbps\nWidth                            : 592 pixels\nHeight                           : 240 pixels\nDisplay aspect ratio             : 2.467\nFrame rate                       : 25.000 fps\nColor space                      : YUV\nChroma subsampling               : 4:2:0\nBit depth                        : 8 bits\nScan type                        : Progressive\nCompression mode                 : Lossy\nBits/(Pixel*Frame)               : 0.151\nStream size                      : 279 MiB (80%)\nWriting library                  : XviD 1.2.1 (UTC 2008-12-04)\n\nAudio\nID                               : 1\nFormat                           : MPEG Audio\nFormat version                   : Version 1\nFormat profile                   : Layer 3\nMode                             : Joint stereo\nMode extension                   : MS Stereo\nCodec ID                         : 55\nCodec ID/Hint                    : MP3\nDuration                         : 1h 12mn\nBit rate mode                    : Variable\nBit rate                         : 128 Kbps\nChannel(s)                       : 2 channels\nSampling rate                    : 48.0 KHz\nCompression mode                 : Lossy\nStream size                      : 63.8 MiB (18%)\nAlignment                        : Aligned on interleaves\nInterleave, duration             : 24 ms (0.60 video frame)\nInterleave, preload duration     : 554 ms\nWriting library                  : LAME3.98 \nEncoding settings                : -m j -V 4 -q 3 -lowpass 17 --abr 128","torrent":{"xt":"urn:btih:7f34ee96b04a32ee780f0d39cb88ff1508e28cb6","amp;dn":"Fathers.of.Girls.2009.READNFO.DVDRiP.XviD-UNVEiL","amp;tr":["udp%3A%2F%2Ftracker.openbittorrent.com%3A80","udp%3A%2F%2Fopen.demonii.com%3A1337","udp%3A%2F%2Ftracker.coppersurfer.tk%3A6969","udp%3A%2F%2Fexodus.desync.com%3A6969"],"infoHash":"7f34ee96b04a32ee780f0d39cb88ff1508e28cb6","infoHashBuffer":{"type":"Buffer","data":[127,52,238,150,176,74,50,238,120,15,13,57,203,136,255,21,8,226,140,182]},"announce":[],"urlList":[]}}